<svg id="visual" viewBox="0 0 960 100" width="960" height="100" xmlns="http://www.w3.org/2000/svg"
    xmlns:xlink="http://www.w3.org/1999/xlink" version="1.1">
    <rect x="0" y="0" width="960" height="300" fill="#5f768f"></rect>
    <path
        d="M0 70L22.8 74.2C45.7 78.3 91.3 86.7 137 89.7C182.7 92.7 228.3 90.3 274 88C319.7 85.7 365.3 83.3 411.2 80.7C457 78 503 75 548.8 74.3C594.7 73.7 640.3 75.3 686 77.8C731.7 80.3 777.3 83.7 823 84.7C868.7 85.7 914.3 84.3 937.2 83.7L960 83L960 0L937.2 0C914.3 0 868.7 0 823 0C777.3 0 731.7 0 686 0C640.3 0 594.7 0 548.8 0C503 0 457 0 411.2 0C365.3 0 319.7 0 274 0C228.3 0 182.7 0 137 0C91.3 0 45.7 0 22.8 0L0 0Z"
        fill="#5f768f"></path>
    <path
        d="M0 64L22.8 66C45.7 68 91.3 72 137 70.8C182.7 69.7 228.3 63.3 274 61.2C319.7 59 365.3 61 411.2 62C457 63 503 63 548.8 65.2C594.7 67.3 640.3 71.7 686 71.2C731.7 70.7 777.3 65.3 823 66.5C868.7 67.7 914.3 75.3 937.2 79.2L960 83L960 0L937.2 0C914.3 0 868.7 0 823 0C777.3 0 731.7 0 686 0C640.3 0 594.7 0 548.8 0C503 0 457 0 411.2 0C365.3 0 319.7 0 274 0C228.3 0 182.7 0 137 0C91.3 0 45.7 0 22.8 0L0 0Z"
        fill="#515c70"></path>
    <path
        d="M0 61L22.8 59.5C45.7 58 91.3 55 137 51.3C182.7 47.7 228.3 43.3 274 41C319.7 38.7 365.3 38.3 411.2 42.3C457 46.3 503 54.7 548.8 55.3C594.7 56 640.3 49 686 47.3C731.7 45.7 777.3 49.3 823 50.5C868.7 51.7 914.3 50.3 937.2 49.7L960 49L960 0L937.2 0C914.3 0 868.7 0 823 0C777.3 0 731.7 0 686 0C640.3 0 594.7 0 548.8 0C503 0 457 0 411.2 0C365.3 0 319.7 0 274 0C228.3 0 182.7 0 137 0C91.3 0 45.7 0 22.8 0L0 0Z"
        fill="#414351"></path>
    <path
        d="M0 42L22.8 41.8C45.7 41.7 91.3 41.3 137 40.5C182.7 39.7 228.3 38.3 274 38.2C319.7 38 365.3 39 411.2 37.5C457 36 503 32 548.8 29.7C594.7 27.3 640.3 26.7 686 27.5C731.7 28.3 777.3 30.7 823 31.7C868.7 32.7 914.3 32.3 937.2 32.2L960 32L960 0L937.2 0C914.3 0 868.7 0 823 0C777.3 0 731.7 0 686 0C640.3 0 594.7 0 548.8 0C503 0 457 0 411.2 0C365.3 0 319.7 0 274 0C228.3 0 182.7 0 137 0C91.3 0 45.7 0 22.8 0L0 0Z"
        fill="#2e2c35"></path>
    <path
        d="M0 12L22.8 11.8C45.7 11.7 91.3 11.3 137 11.2C182.7 11 228.3 11 274 13.8C319.7 16.7 365.3 22.3 411.2 24.2C457 26 503 24 548.8 22.7C594.7 21.3 640.3 20.7 686 20.5C731.7 20.3 777.3 20.7 823 19.3C868.7 18 914.3 15 937.2 13.5L960 12L960 0L937.2 0C914.3 0 868.7 0 823 0C777.3 0 731.7 0 686 0C640.3 0 594.7 0 548.8 0C503 0 457 0 411.2 0C365.3 0 319.7 0 274 0C228.3 0 182.7 0 137 0C91.3 0 45.7 0 22.8 0L0 0Z"
        fill="#1a181b"></path>
</svg>